<?xml version="1.0" encoding="utf-8"?>
<!-- Generator: Adobe Illustrator 22.1.0, SVG Export Plug-In . SVG Version: 6.00 Build 0)  -->
<svg version="1.1" id="Layer_1" xmlns="http://www.w3.org/2000/svg" xmlns:xlink="http://www.w3.org/1999/xlink" x="0px" y="0px"
	 viewBox="0 0 130 130" style="enable-background:new 0 0 130 130;" xml:space="preserve">
<style type="text/css">
	.st0{fill:#FFFFFF;}
	.st1{fill:#737373;}
	.st2{fill:#4D4C4C;}
	.st3{fill:#A6A5A6;}
	.st4{fill:#676767;}
	.st5{fill:#333333;}
	.st6{fill:#C81517;}
</style>
<circle class="st0" cx="65" cy="65" r="65"/>
<path class="st1" d="M19,19C-6.3,44.4-6.3,85.6,19,111l46-46L19,19z"/>
<path class="st2" d="M19,111c25.4,25.4,66.6,25.4,91.9,0L65,65L19,111z"/>
<path class="st3" d="M111,111c25.4-25.4,25.4-66.6,0-91.9L65,65L111,111z"/>
<path class="st4" d="M92.7,92.7c15.3-15.3,15.3-40.1,0-55.4L65,65L92.7,92.7z"/>
<path class="st2" d="M37.3,92.7c15.3,15.3,40.1,15.3,55.4,0L65,65L37.3,92.7z"/>
<path class="st5" d="M37.3,37.3C22,52.6,22,77.4,37.3,92.7L65,65L37.3,37.3z"/>
<circle class="st0" cx="65" cy="65" r="19.2"/>
<g>
	
		<image style="overflow:visible;opacity:0.75;" width="178" height="475" xlink:href="DEFA0A7E.png"  transform="matrix(0.24 0 0 0.24 84.8962 8.0933)">
	</image>
	<g>
		<g>
			<path class="st6" d="M90.8,97.7c0-7.5,5.2-12.9,12.7-12.9c7.5,0,12.4,5.4,12.6,12.9c0,7.3-4.9,12.9-12.6,12.9
				C95.8,110.6,90.8,105,90.8,97.7z M95.4,77.8l-3.2-64h22.5l-3.1,64H95.4z"/>
		</g>
	</g>
</g>
</svg>
